<?xml version="1.0" ?>
<svg xmlns="http://www.w3.org/2000/svg" xmlns:ev="http://www.w3.org/2001/xml-events" xmlns:xlink="http://www.w3.org/1999/xlink" baseProfile="full" height="800.0" version="1.1" viewBox="0 0 211.66666 211.66667" width="800.0">
	<defs/>
	<path d="M 97.941825,33.824292 L 20.511926,89.790901 L 53.521281,89.790901 L 53.521281,159.74942 L 140.46016,159.74942 L 140.46016,89.111873 L 177.95193,89.111873 L 97.941825,33.824292 M 99.805277,100.07658 L 126.77831,100.07658 L 126.77831,118.35608 L 99.805277,118.35608 L 99.805277,100.07658 M 70.958459,128.13636 C 79.197623,128.09619 76.822122,138.60994 77.429382,152.14213 L 70.093912,152.14213 L 62.758443,152.14213 C 64.518126,133.66614 60.852059,128.18566 70.958459,128.13636" fill="gray" stroke="black" stroke-width="0.5"/>
	<path d="M 53.521281,89.790901 C 64.52439933333333,89.790901 129.91016,89.111873 140.46016,89.111873" fill="none" stroke="black" stroke-width="0.5"/>
	<path d="M 126.77831,118.35608 C 126.77831,128.90608 87.979382,152.14213 77.429382,152.14213" fill="none" stroke="black" stroke-width="0.5"/>
	<path d="M 20.511926,89.790901 C 0.0,108.44643733333334 0.0,108.44643733333334 0.0,108.44643733333334" fill="none" stroke="black" stroke-width="0.5"/>
	<path d="M 20.511926,89.790901 C 9.961925999999998,89.790901 1.0,84.0 0.0,82.2710655402559" fill="none" stroke="black" stroke-width="0.5"/>
	<path d="M 53.521281,89.790901 C 53.521281,79.24090100000001 67.0,37.0 73.0,0.0" fill="none" stroke="black" stroke-width="0.5"/>
	<path d="M 53.521281,159.74942 C 53.521281,183.0689263333333 32.0,187.0 22.0,211.0" fill="none" stroke="black" stroke-width="0.5"/>
	<path d="M 53.521281,159.74942 C 42.971281000000005,159.74942 0.0,169.0 0.0,174.0" fill="none" stroke="black" stroke-width="0.5"/>
	<path d="M 140.46016,159.74942 C 169.43978633333333,159.74942 191.0,161.0 211.0,177.0" fill="none" stroke="black" stroke-width="0.5"/>
	<path d="M 140.46016,159.74942 C 140.46016,170.29942 164.0,175.0 191.0,211.0" fill="none" stroke="black" stroke-width="0.5"/>
	<path d="M 140.46016,89.111873 C 140.46016,65.566024 183.0,46.0 196.0,0.0" fill="none" stroke="black" stroke-width="0.5"/>
	<path d="M 177.95193,89.111873 C 190.44918666666666,89.111873 192.0,92.0 211.0,98.0" fill="none" stroke="black" stroke-width="0.5"/>
	<path d="M 177.95193,89.111873 C 186.63133568155297,95.10940724458972 189.0,114.0 211.0,120.0" fill="none" stroke="black" stroke-width="0.5"/>
	<path d="M 97.941825,33.824292 C 71.27178999999998,15.39509833333333 85.0,26.0 85.0,0.0" fill="none" stroke="black" stroke-width="0.5"/>
	<path d="M 97.941825,33.824292 C 106.49213083431712,27.644100244104187 130.0,20.0 211.0,19.0" fill="none" stroke="black" stroke-width="0.5"/>
	<path d="M 126.77831,100.07658 C 137.32831000000002,100.07658 156.0,158.0 211.0,160.0" fill="none" stroke="black" stroke-width="0.5"/>
	<path d="M 126.77831,100.07658 C 126.77831,89.52658000000001 166.0,3.0 182.0,0.0" fill="none" stroke="black" stroke-width="0.5"/>
	<path d="M 126.77831,118.35608 C 137.32831000000002,118.35608 178.0,133.0 211.0,146.0" fill="none" stroke="black" stroke-width="0.5"/>
	<path d="M 99.805277,118.35608 C 89.255277,118.35608 12.0,87.0 0.0,7.0" fill="none" stroke="black" stroke-width="0.5"/>
	<path d="M 99.805277,118.35608 C 99.805277,128.90608 71.0,205.0 47.0,211.0" fill="none" stroke="black" stroke-width="0.5"/>
	<path d="M 99.805277,100.07658 C 99.805277,89.52658000000001 91.0,39.0 24.0,0.0" fill="none" stroke="black" stroke-width="0.5"/>
	<path d="M 99.805277,100.07658 C 89.255277,100.07658 83.0,107.0 0.0,136.0" fill="none" stroke="black" stroke-width="0.5"/>
	<path d="M 77.429382,152.14213 C 78.03664200000001,165.67432000000002 29.0,208.0 6.0,211.0" fill="none" stroke="black" stroke-width="0.5"/>
	<path d="M 62.758443,152.14213 C 52.208443,152.14213 18.0,135.0 0.0,59.0" fill="none" stroke="black" stroke-width="0.5"/>
	<path d="M 62.758443,152.14213 C 61.974896287283485,162.66299282340907 90.0,210.0 139.0,211.0" fill="none" stroke="black" stroke-width="0.5"/>
	<path d="M 145.25,35.750000000000014 C 165.275,15.275000000000006 194.0,54.0 211.0,74.5" fill="none" stroke="black" stroke-width="0.5"/>
	<path d="M 145.25,35.750000000000014 C 125.225,56.22500000000002 120.0,91.0 77.5,211.0" fill="none" stroke="black" stroke-width="0.5"/>
	<path d="M 0.0,0.0 C 0.0,0.0 0.0,211.0 0.0,211.0" fill="none" stroke="black" stroke-width="0.5"/>
	<path d="M 211.0,0.0 C 211.0,0.0 211.0,211.0 211.0,211.0" fill="none" stroke="black" stroke-width="0.5"/>
	<path d="M 0.0,0.0 C 0.0,0.0 211.0,0.0 211.0,0.0" fill="none" stroke="black" stroke-width="0.5"/>
	<path d="M 0.0,211.0 C 0.0,211.0 211.0,211.0 211.0,211.0" fill="none" stroke="black" stroke-width="0.5"/>
</svg>
