<?xml version="1.0" encoding="UTF-8" standalone="no"?>
<!-- Created with Inkscape (http://www.inkscape.org/) -->

<svg
   width="800"
   height="800"
   viewBox="0 0 211.66666 211.66667"
   version="1.1"
   id="svg1"
   inkscape:version="1.4.4 (dcaf3e7, 2026-05-05)"
   sodipodi:docname="tree.svg"
   xmlns:inkscape="http://www.inkscape.org/namespaces/inkscape"
   xmlns:sodipodi="http://sodipodi.sourceforge.net/DTD/sodipodi-0.dtd"
   xmlns="http://www.w3.org/2000/svg"
   xmlns:svg="http://www.w3.org/2000/svg">
  <sodipodi:namedview
     id="namedview1"
     pagecolor="#ffffff"
     bordercolor="#000000"
     borderopacity="0.25"
     inkscape:showpageshadow="2"
     inkscape:pageopacity="0.0"
     inkscape:pagecheckerboard="0"
     inkscape:deskcolor="#d1d1d1"
     inkscape:document-units="px"
     inkscape:zoom="0.97386896"
     inkscape:cx="412.27313"
     inkscape:cy="333.20705"
     inkscape:window-width="1920"
     inkscape:window-height="991"
     inkscape:window-x="2391"
     inkscape:window-y="275"
     inkscape:window-maximized="1"
     inkscape:current-layer="layer1" />
  <defs
     id="defs1" />
  <g
     inkscape:label="Ebene 1"
     inkscape:groupmode="layer"
     id="layer1">
    <path
       style="fill:none;stroke:#000000;stroke-width:0.396875;paint-order:markers stroke fill"
       d="m 88.296871,123.8873 c 5.212952,20.76199 1.597187,32.33502 -6.248702,54.33654 l 29.613411,-0.54336 c -3.60107,-14.35309 -7.54965,-33.66994 -3.80356,-55.42327 0,0 30.97183,3.80356 41.02409,-13.58414 10.05226,-17.38769 9.76877,-26.403527 2.71682,-39.393986 -5.16196,-9.508894 -13.85581,-5.97702 -13.85581,-5.97702 0,0 29.43088,-22.829951 16.30096,-38.307257 C 123.70539,-10.767869 69.822449,7.0637499 64.117114,19.289471 57.997637,32.402639 31.434088,32.853472 31.51519,54.879901 31.5663,68.759578 42.674965,99.544269 56.238315,93.730524 47.837402,102.49048 34.5037,123.07225 88.296871,123.8873 Z"
       id="path1"
       sodipodi:nodetypes="ccccsscssscc" />
  </g>
</svg>
